<svg id="Layer_1" enable-background="new 0 0 512 512" height="512" viewBox="0 0 512 512" width="512" xmlns="http://www.w3.org/2000/svg"><g><g><g><ellipse clip-rule="evenodd" cx="256" cy="256" fill="#fff4f4" fill-rule="evenodd" rx="241" ry="241" transform="matrix(.707 -.707 .707 .707 -106.039 256)"/></g></g><path clip-rule="evenodd" d="m256 15v482c132.738 0 241-108.262 241-241 0-132.739-108.261-241-241-241z" fill="#f6efea" fill-rule="evenodd"/><path d="m435.999 222c-8.284 0-15 6.716-15 15v4.001h-149.999v-150h4c8.284 0 15-6.716 15-15s-6.716-15-15-15h-38c-8.284 0-15 6.716-15 15s6.716 15 15 15h4v128.787l-91.066-91.066 2.829-2.829c5.857-5.858 5.857-15.355 0-21.213-5.858-5.857-15.355-5.857-21.213 0l-26.87 26.871c-5.857 5.858-5.857 15.355 0 21.213 2.929 2.929 6.768 4.394 10.606 4.394s7.678-1.465 10.607-4.394l2.828-2.828 91.066 91.066h-128.787v-4.002c0-8.284-6.716-15-15-15s-15 6.716-15 15v38.001c0 8.284 6.716 15 15 15s15-6.716 15-15v-4h150v149.999h-4c-8.284 0-15 6.716-15 15s6.716 15 15 15h38c8.284 0 15-6.716 15-15s-6.716-15-15-15h-4v-128.786l91.066 91.066-2.829 2.829c-5.858 5.858-5.858 15.355 0 21.213 2.929 2.929 6.768 4.394 10.606 4.394s7.678-1.465 10.606-4.394l26.87-26.871c5.858-5.858 5.857-15.355 0-21.213s-15.355-5.857-21.213 0l-2.829 2.829-91.065-91.065h128.786v4c0 8.284 6.716 15 15 15s15-6.716 15-15v-38.002c.001-8.284-6.715-15-14.999-15z" fill="#00cb75"/><path d="m435.999 222c-8.284 0-15 6.716-15 15v4.001h-149.999v-150h4c8.284 0 15-6.716 15-15s-6.716-15-15-15h-19v389.999h19c8.284 0 15-6.716 15-15s-6.716-15-15-15h-4v-128.786l91.066 91.066-2.829 2.829c-5.858 5.858-5.858 15.355 0 21.213 2.929 2.929 6.768 4.394 10.606 4.394s7.678-1.465 10.606-4.394l26.87-26.871c5.858-5.858 5.857-15.355 0-21.213s-15.355-5.857-21.213 0l-2.829 2.829-91.065-91.065h128.786v4c0 8.284 6.716 15 15 15s15-6.716 15-15v-38.002c.001-8.284-6.715-15-14.999-15z" fill="#009954"/><path d="m386.107 152.764c2.929 2.93 6.768 4.394 10.606 4.394s7.678-1.465 10.606-4.394c5.857-5.857 5.858-15.354 0-21.213l-26.87-26.871c-5.856-5.858-15.354-5.858-21.213 0-5.858 5.857-5.858 15.354 0 21.213z" fill="#009954"/><path d="m125.893 359.237c-5.857-5.858-15.355-5.858-21.213 0-5.858 5.857-5.858 15.354 0 21.213l26.87 26.871c2.929 2.93 6.768 4.394 10.607 4.394 3.838 0 7.678-1.465 10.606-4.394 5.858-5.857 5.858-15.354 0-21.213z" fill="#00cb75"/><g><g><path d="m256 389.426c-73.571 0-133.425-59.854-133.425-133.426s59.854-133.426 133.425-133.426c73.572 0 133.426 59.854 133.426 133.426s-59.854 133.426-133.426 133.426z" fill="#bee75e"/></g></g><path d="m256 122.574v266.851c73.572 0 133.426-59.854 133.426-133.425s-59.854-133.426-133.426-133.426z" fill="#00cb75"/><g><path clip-rule="evenodd" d="m256 200.667c8.17 0 14.834-6.664 14.834-14.834s-6.664-14.833-14.834-14.833-14.834 6.663-14.834 14.833c.001 8.171 6.664 14.834 14.834 14.834z" fill="#00cb75" fill-rule="evenodd"/></g><g><path clip-rule="evenodd" d="m256 341.167c8.17 0 14.834-6.664 14.834-14.834s-6.664-14.833-14.834-14.833-14.834 6.663-14.834 14.833c.001 8.17 6.664 14.834 14.834 14.834z" fill="#00cb75" fill-rule="evenodd"/></g><g><circle clip-rule="evenodd" cx="326.25" cy="256.084" fill="#009954" fill-rule="evenodd" r="14.833"/></g><g><circle clip-rule="evenodd" cx="305.674" cy="305.758" fill="#009954" fill-rule="evenodd" r="14.834"/></g><g><circle clip-rule="evenodd" cx="185.75" cy="256.084" fill="#00cb75" fill-rule="evenodd" r="14.833"/></g><g><circle clip-rule="evenodd" cx="206.326" cy="206.41" fill="#00cb75" fill-rule="evenodd" r="14.834"/></g><g><g><path d="m256 0c-141.159 0-256 114.841-256 256s114.841 256 256 256 256-114.841 256-256-114.841-256-256-256zm0 30c56.922 0 108.989 21.161 148.767 56.019l-318.747 318.749c-34.858-39.779-56.02-91.846-56.02-148.768 0-124.617 101.383-226 226-226zm0 452c-56.922 0-108.989-21.161-148.767-56.019l318.747-318.749c34.858 39.779 56.02 91.846 56.02 148.768 0 124.617-101.383 226-226 226z" fill="#ff8856"/></g></g><path d="m256 0v30c56.922 0 108.989 21.161 148.767 56.019l-148.767 148.768v42.426l169.98-169.981c34.858 39.779 56.02 91.846 56.02 148.768 0 124.617-101.383 226-226 226v30c141.159 0 256-114.841 256-256s-114.841-256-256-256z" fill="#ff435b"/><g clip-rule="evenodd" fill="#009954" fill-rule="evenodd"><path d="m256 171v29.667c8.17 0 14.834-6.664 14.834-14.834 0-8.169-6.664-14.833-14.834-14.833z"/><path d="m256 311.5v29.667c8.17 0 14.834-6.664 14.834-14.834s-6.664-14.833-14.834-14.833z"/></g></g></svg>