<svg id="Capa_1" enable-background="new 0 0 374.424 374.424" height="512" viewBox="0 0 374.424 374.424" width="512" xmlns="http://www.w3.org/2000/svg"><g><path d="m316.712 249.066c-4.834-14.342-15.867-25.759-29.58-32.165l-58.352-27.261-41.569 16.274-41.569-16.274-58.352 27.261c-13.712 6.406-24.745 17.823-29.58 32.165-1.703 5.053-2.751 10.6-2.515 16.407.567 13.973 2.794 50.564 4.479 77.502 1.106 17.686 15.774 31.449 33.495 31.449h94.042 94.042c17.721 0 32.388-13.762 33.495-31.449 1.685-26.938 3.912-63.528 4.479-77.502.236-5.807-.811-11.354-2.515-16.407z" fill="#d5d6db"/><path d="m268.442 289.743-6.42-.415c1.248-19.395 1.864-42.167-3.015-64.012-4.173-18.687-14.932-31.951-31.976-39.42-32.223-14.128-75.324-3.269-84.609 2.109-17.586 10.181-24.76 24.592-24.76 49.746h-6.433c0-27.421 8.364-43.964 27.968-55.312 11.392-6.596 56.436-17.328 90.418-2.435 19.022 8.338 31.023 23.112 35.67 43.91 5.056 22.636 4.432 45.98 3.157 65.829z" fill="#2f4859"/><path d="m152.135 134.462h70.154v88.724h-70.154z" fill="#f7be56"/><path d="m228.78 189.64-41.569 16.274-41.569-16.274-9.915 4.632v104.628l51.483 75.523 40.446-59.63 9.922-121.042z" fill="#2d93ba"/><path d="m194.697 205.953h-14.97l-7.485 12.964 7.485 12.964h14.97l7.485-12.964z" fill="#e56353"/><path d="m222.289 174.303-35.077 31.611 22.602 24.316 18.967-40.591z" fill="#27a2db"/><path d="m152.135 174.303 35.077 31.611-22.602 24.316-18.967-40.591z" fill="#27a2db"/><path d="m207.598 347.031-20.386 27.392-20.386-27.392 12.866-116.162h15.04z" fill="#e56353"/><path d="m226.91 185.221s10.655 84.026-39.698 189.202c0 0 41.639-29.118 64.879-104.765l-10.652-19.549 16.411-11.05-15.332-43.556z" fill="#ebf0f3"/><path d="m147.832 184.469s-10.974 84.778 39.38 189.954c0 0-41.639-29.118-64.879-104.765l10.652-19.549-16.411-11.05 15.332-43.556z" fill="#ebf0f3"/><g fill="#fcd462"><path d="m252.584 93.702c-3.98-.902-8.815 5.467-10.799 14.226-1.984 8.758-.366 16.589 3.614 17.491s8.815-5.467 10.799-14.226.366-16.59-3.614-17.491z"/><path d="m121.034 93.702c3.98-.902 8.815 5.467 10.799 14.226 1.984 8.758.366 16.589-3.614 17.491s-8.815-5.467-10.799-14.226-.366-16.59 3.614-17.491z"/><ellipse cx="187.411" cy="98.779" rx="64.645" ry="75.589"/></g><g fill="#474c5b"><path d="m220.514 6.128s-19.638-8.079-33.845-5.685c-14.207-2.394-33.845 5.685-33.845 5.685-31.6 18.397-34.211 48.472-31.338 75.402 2.343 21.96 6.769 39.344 8.323 45.011.293 1.068 1.1 1.896 2.075 1.961 1.497.099 2.636-1.434 2.374-3.096-2.611-16.51 1.104-24.482 3.758-27.899 1.203-1.549 1.31-3.842.295-5.559l-3.506-5.93c-5.484-9.276-4.701-37.701 10.185-32.614s41.68 5.685 41.68 5.685 26.794-.598 41.68-5.685 15.669 23.339 10.185 32.614l-3.505 5.929c-1.008 1.705-.924 4 .274 5.535 2.648 3.394 6.375 11.33 3.799 27.789-.222 1.421.508 2.89 1.742 3.18 1.181.278 2.301-.513 2.647-1.771 1.518-5.518 5.999-23.008 8.361-45.15 2.872-26.929.26-57.005-31.339-75.402z"/><path d="m117.272 248.953c18.934 4.248 29.388 20.115 33.832 51.233 1.418 9.929-.35 17.551-5.255 22.659-5.708 5.94-14.088 6.58-17.425 6.58-.282 0-.537-.004-.762-.011l.469-4.572c.087.001.179.001.275.001 2.767 0 9.687-.508 14.172-5.207 3.854-4.038 5.197-10.365 3.993-18.804-4.18-29.26-13.237-43.525-30.184-47.384z"/><path d="m112.503 253.449c-16.948 3.858-26.004 18.124-30.184 47.384-1.204 8.439.138 14.766 3.991 18.804 4.485 4.699 11.405 5.207 14.172 5.207.1 0 .196-.001.286-.002l.46 4.575c-.228.007-.486.011-.773.011-3.334 0-11.706-.642-17.416-6.584-4.905-5.106-6.673-12.73-5.254-22.659 4.444-31.117 14.899-46.984 33.832-51.232z"/></g><path d="m77.528 294.554h6.986c4.552-24.787 13.428-36.949 29.052-40.152h1.758c15.624 3.203 24.501 15.365 29.052 40.152h6.985c-4.71-26.67-14.504-41.128-31.18-46.019v-16.776h-11.473v16.776c-16.676 4.892-26.47 19.349-31.18 46.019z" fill="#44c4a1"/><circle cx="128.096" cy="327.465" fill="#2f4859" r="4.84"/><circle cx="101.869" cy="327.465" fill="#2f4859" r="4.84"/><circle cx="265.305" cy="292.841" fill="#44c4a1" r="16.861"/><circle cx="265.305" cy="292.841" fill="#4d5c7d" r="10.809"/><circle cx="265.305" cy="292.841" fill="#2f4859" r="5.319"/></g></svg>