<svg id="Layer_1" enable-background="new 0 0 256 256" height="512" viewBox="0 0 256 256" width="512" xmlns="http://www.w3.org/2000/svg"><g><path d="m172.883 251.167v-58.783c0-11.806-9.57-21.376-21.376-21.376h-119.704c-11.806 0-21.376 9.57-21.376 21.376v58.783z" fill="#e0ebfc"/><path d="m91.655 171.007h-39.966l39.966 80.16 39.966-80.16z" fill="#e0ebfc"/><path d="m99.157 203.071h-7.502-7.502l-5.167 22.686 12.669 25.41 12.669-25.411z" fill="#f9a7a7"/><g fill="#e0ebfc"><path d="m34.366 171.007 20.663 56.112h14.607l-6.192 6.947 28.211 17.101-39.966-80.16z"/><path d="m148.945 171.007h-17.324l-39.966 80.16 28.211-17.101-6.191-6.947h14.606z"/><path d="m67.22 202.157 24.435-25.449-28.211-19.966-11.755 14.265z"/><path d="m116.091 202.157-24.436-25.449 28.211-19.966 11.755 14.265z"/></g><path d="m63.444 132.175v14.154 10.413l28.211 19.965h.001l28.155-19.926v-24.606z" fill="#f9cfcf"/><path d="m91.655 143.456c-35.338 0-63.986-28.647-63.986-63.986v-20.682h127.972v20.682c0 35.339-28.648 63.986-63.986 63.986z" fill="#4671c6"/><path d="m146.152 83.796v-5.103c0-29.827-24.399-54.006-54.497-54.006-30.098 0-54.497 24.179-54.497 54.006v5.103c-9.463-.192-16.971 7.347-16.971 16.459 0 9.73 8.495 17.427 18.41 16.379 5.624 23.894 27.237 41.696 53.058 41.696 25.822 0 47.434-17.803 53.058-41.696 9.902 1.047 18.41-6.635 18.41-16.379 0-9.117-7.514-16.651-16.971-16.459z" fill="#f9cfcf"/><g><path d="m91.648 132.364c-2.205 0-4.127-.258-5.875-.79-2.902-.883-5.446-2.368-7.355-4.292-.778-.784-.772-2.051.012-2.829s2.052-.772 2.828.011c1.445 1.457 3.409 2.592 5.68 3.283 1.365.416 2.906.617 4.711.617 1.804 0 3.345-.202 4.71-.617 2.271-.691 4.235-1.826 5.68-3.282.776-.785 2.044-.791 2.828-.012.784.778.79 2.044.012 2.829-1.908 1.925-4.452 3.41-7.355 4.293-1.75.531-3.671.789-5.876.789z" fill="#3762cc"/></g><path d="m119.948 110.949c-3.614 0-6.544-2.93-6.544-6.544v-6.98c0-3.614 2.93-6.544 6.544-6.544 3.614 0 6.544 2.93 6.544 6.544v6.98c0 3.615-2.93 6.544-6.544 6.544z" fill="#3762cc"/><path d="m63.348 110.949c-3.614 0-6.544-2.93-6.544-6.544v-6.98c0-3.614 2.93-6.544 6.544-6.544 3.614 0 6.544 2.93 6.544 6.544v6.98c0 3.615-2.93 6.544-6.544 6.544z" fill="#3762cc"/><path d="m91.655 176.707-11.633 12.116 4.131 14.248h15.004l4.131-14.248z" fill="#f9a7a7"/><path d="m111.605 4.833h-35.95-6.737c-22.781 0-41.249 18.468-41.249 41.249v21.115h30.665c9.566 0 17.321-7.755 17.321-17.321v-5.041c0 12.35 10.012 22.362 22.362 22.362h57.622v-18.33c0-24.319-19.715-44.034-44.034-44.034z" fill="#4671c6"/><path d="m151.507 169.007h-2.563-16.379l-10.754-13.05v-4.207c11.774-7.341 20.68-18.937 24.438-33.025 4.673.072 9.264-1.639 12.76-4.785 3.885-3.496 6.113-8.484 6.113-13.686 0-4.979-1.967-9.648-5.539-13.148-.351-.344-.715-.669-1.089-.979-.366-.307-.744-.593-1.129-.869-.001 0-.001-.001-.002-.002.17-1.94.277-3.882.277-5.787l-.002-20.682v-.003-.003-9.914c0-25.383-20.65-46.033-46.033-46.033h-42.687c-23.848 0-43.249 19.401-43.249 43.248v21.115 12.273c0 1.898.107 3.84.277 5.786-.001.001-.002.002-.003.002-.783.561-1.534 1.178-2.216 1.846-3.572 3.5-5.539 8.17-5.539 13.149 0 5.202 2.229 10.191 6.115 13.688 3.495 3.144 8.082 4.845 12.758 4.783 3.753 14.066 12.636 25.648 24.384 32.991v4.309l-10.699 12.983c-7.209 0-12.107 0-18.943 0-12.89 0-23.376 10.486-23.376 23.376v58.783c0 1.104.896 2 2 2h162.456c1.104 0 2-.896 2-2v-58.783c0-12.889-10.487-23.376-23.376-23.376zm-22.255 2.27c-.063.125-13.63 27.338-13.685 27.447l-20.86-21.726 24.798-17.55zm-24.221 48.578-3.809-16.724 3.022-10.424 9.427 9.818zm-35.393-17.33 9.428-9.819 3.022 10.424-3.809 16.725zm-4.194-48.532c7.87 4.065 16.798 6.336 26.211 6.336 9.391 0 18.3-2.26 26.156-6.308v1.725l-26.156 18.511-26.211-18.55zm35.602 35.382-3.392 11.695h-11.998l-3.392-11.695 9.391-9.78zm-9.391 57.309-10.56-21.18 4.654-20.432h11.813l4.654 20.432zm56.423-170.723c0-.001 0-.001 0-.002-.125-2.502-.473-5.177-.746-6.762h6.309v10.273c0 1.217-.037 2.449-.111 3.687-1.809-.729-3.802-1.161-5.377-1.295-.001-3.404.017-4.038-.075-5.901zm-118.409-29.879c0-21.642 17.607-39.248 39.249-39.248h42.688c23.177 0 42.033 18.856 42.033 42.033v9.921 6.409h-8.736-46.885c-.005 0-.01-.001-.016-.001-2.856-.002-5.73-.614-8.461-1.871-1.645-.757-3.226-1.725-4.812-3.096-1.496-1.293-2.78-2.798-3.744-4.269-.948-1.447-1.87-3.32-2.442-5.194-.53-1.737-.887-3.826-.887-5.931 0-1.104-.896-2-2-2s-2 .896-2 2v5.041c0 1.969-.425 4.015-1.128 5.745-2.286 5.619-7.846 9.575-14.193 9.575h-19.927-8.739zm0 23.114h6.31c-.932 5.366-.82 9.611-.82 12.666-1.721.147-3.604.581-5.377 1.295-.075-1.241-.112-2.473-.112-3.687v-10.274zm10.876 46.979c-.215-.911-1.028-1.542-1.945-1.542-.07 0-.142.003-.212.011-4.171.442-8.324-.899-11.41-3.676-3.044-2.739-4.79-6.645-4.79-10.714 0-7.237 5.335-13.25 12.468-14.297.912-.13 1.759-.178 2.462-.163 1.079.03 2.04-.852 2.04-2 0-5.409-.158-8.923.904-14.599h18.272c3.002 0 5.468-.796 5.468-.796.001 0 .002-.001.003-.001.778-.231 1.258-.41 1.766-.615.147-.06.69-.3.69-.3h.001c4.954-2.229 8.608-6.439 10.283-11.148 1.562 2.905 3.785 5.511 6.171 7.443l-.003.004c.012.01 1.203.896 1.203.913.078.055 2.136 1.393 2.231 1.414.002.001.004.002.007.003-.001.001.005.002.005.003.013.001.004.001.004.002.002 0 .006.004.008.004.004-.001.003.001.004.002 1 .5 2.091 1.12 3.731 1.684l.002-.004c.002.001.042.013.051.016l-.002.005c2.384.837 5.267 1.372 8.06 1.372h.001 45.231c.46 2.46.726 4.801.833 6.898.089 1.749.071 2.084.071 7.701 0 1.141.947 2.022 2.04 2 1.526-.028 3.224.19 4.876.729 2.036.656 4.064 1.821 5.716 3.439 2.798 2.742 4.339 6.397 4.339 10.292 0 4.069-1.745 7.974-4.789 10.712-3.087 2.778-7.248 4.119-11.411 3.678-.992-.109-1.926.55-2.157 1.53-5.564 23.643-26.582 40.154-51.11 40.154s-45.548-16.512-51.112-40.154zm23.261 43.273 24.798 17.55-20.86 21.726c-3.806-7.632-8.556-17.159-13.685-27.448zm-13.355 13.559 14.979 30.042 11.766 23.599v.001l9.585 19.224-20.244-12.272 4.592-5.152c.524-.588.654-1.43.332-2.149s-1.037-1.182-1.825-1.182h-13.213l-19.189-52.111zm-38.024 76.16v-56.783c0-10.684 8.692-19.376 19.376-19.376h1.168l20.181 54.802c.29.787 1.039 1.309 1.877 1.309h10.146l-3.224 3.617c-.396.443-.573 1.04-.484 1.627.088.587.433 1.105.94 1.414l22.09 13.39zm84.705-4.503 8.982-18.015v-.001l11.764-23.595c.001-.001.002-.002.002-.004l14.978-30.042h13.217l-19.189 52.111h-13.212c-.788 0-1.503.463-1.825 1.182s-.192 1.561.332 2.149l4.592 5.152-20.244 12.272zm73.751 4.503h-72.069l22.09-13.39c.508-.308.853-.826.94-1.414.089-.587-.089-1.184-.484-1.627l-3.224-3.617h10.146c.838 0 1.587-.522 1.877-1.309l20.181-54.802c13.044 0 20.544 9.512 20.544 19.376v56.783z" fill="#3762cc"/><g><path d="m169.296 253.167h15.096c14.347 0 26.019-11.672 26.019-26.019v-32.805c0-1.71-1.386-3.096-3.096-3.096s-3.096 1.386-3.096 3.096v32.805c0 10.933-8.894 19.827-19.827 19.827h-15.096c-10.933 0-19.827-8.894-19.827-19.827v-34.869c0-1.71-1.386-3.096-3.096-3.096s-3.096 1.386-3.096 3.096v34.869c0 14.346 11.672 26.019 26.019 26.019z" fill="#4671c6"/></g><circle cx="146.373" cy="188.627" fill="#a4c9ff" r="11.997"/><path d="m146.373 194.145c3.043 0 5.518-2.476 5.518-5.519s-2.475-5.518-5.518-5.518-5.519 2.476-5.519 5.518c0 3.044 2.476 5.519 5.519 5.519z" fill="#e0ebfc"/><g><path d="m146.373 202.624c-7.718 0-13.997-6.279-13.997-13.997s6.279-13.997 13.997-13.997 13.997 6.279 13.997 13.997-6.279 13.997-13.997 13.997zm0-23.995c-5.513 0-9.997 4.485-9.997 9.997s4.484 9.997 9.997 9.997 9.997-4.485 9.997-9.997-4.484-9.997-9.997-9.997z" fill="#3762cc"/></g><g><path d="m235.256 115.788h-6.019c-2.137 0-3.869 1.732-3.869 3.869s1.732 3.869 3.869 3.869h6.019c1.422 0 2.579 1.157 2.579 2.579v32.476c0 16.829-13.692 30.521-30.521 30.521s-30.52-13.692-30.52-30.521v-32.476c0-1.422 1.157-2.579 2.579-2.579h6.017c2.137 0 3.869-1.732 3.869-3.869s-1.732-3.869-3.869-3.869h-6.017c-5.689 0-10.317 4.628-10.317 10.317v32.476c0 21.096 17.163 38.259 38.258 38.259 21.096 0 38.259-17.163 38.259-38.259v-32.476c0-5.688-4.628-10.317-10.317-10.317z" fill="#a4c9ff"/></g><path d="m193.505 113.916h-9.62c-1.371 0-2.483 1.111-2.483 2.483v6.517c0 1.371 1.111 2.483 2.483 2.483h9.62c1.371 0 2.483-1.111 2.483-2.483v-6.517c0-1.371-1.112-2.483-2.483-2.483z" fill="#4671c6"/><path d="m230.743 113.916h-9.62c-1.371 0-2.483 1.111-2.483 2.483v6.517c0 1.371 1.111 2.483 2.483 2.483h9.62c1.371 0 2.483-1.111 2.483-2.483v-6.517c-.001-1.371-1.112-2.483-2.483-2.483z" fill="#4671c6"/><path d="m235.256 113.789h-.884c-.815-1.129-2.133-1.872-3.628-1.872h-9.62c-2.472 0-4.482 2.011-4.482 4.482v6.517c0 2.472 2.011 4.482 4.482 4.482h9.62c1.495 0 2.814-.743 3.628-1.872h.884c.319 0 .579.26.579.58v32.476c0 15.727-12.795 28.521-28.521 28.521s-28.52-12.794-28.52-28.521v-32.476c0-.32.26-.58.579-.58h.884c.815 1.129 2.133 1.872 3.628 1.872h9.619c2.472 0 4.482-2.011 4.482-4.482v-6.517c0-2.472-2.011-4.482-4.482-4.482h-9.619c-1.495 0-2.814.743-3.628 1.872h-.884c-6.792 0-12.317 5.525-12.317 12.317v32.476c0 22.199 18.06 40.258 40.258 40.258 22.199 0 40.26-18.06 40.26-40.258v-32.476c-.001-6.792-5.526-12.317-12.318-12.317zm-4.03 9.125s-.001.005-.001.005c-.002.264-.217.479-.482.479h-9.62c-.266 0-.482-.216-.482-.482v-6.517c0-.266.217-.482.482-.482h9.62c.266 0 .482.216.482.482v6.515zm-47.823-6.515v-.001c0-.266.217-.482.482-.482h9.619c.266 0 .482.216.482.482v6.517c0 .266-.217.482-.482.482h-9.619c-.266 0-.482-.216-.482-.482zm60.17 42.182c0 19.993-16.266 36.258-36.26 36.258-19.992 0-36.258-16.266-36.258-36.258v-32.476c0-4.586 3.731-8.317 8.317-8.317l.03 3.737h-.03c-2.525 0-4.579 2.054-4.579 4.58v32.476c0 17.932 14.588 32.521 32.52 32.521 17.933 0 32.521-14.589 32.521-32.521v-32.476c0-2.525-2.054-4.58-4.579-4.58l-.03-3.737h.03c4.586 0 8.317 3.731 8.317 8.317v32.476z" fill="#3762cc"/></g></svg>