<svg id="Layer_1" enable-background="new 0 0 256 256" height="512" viewBox="0 0 256 256" width="512" xmlns="http://www.w3.org/2000/svg"><path d="m123.345 171.497h-70.386c-17.007 0-30.794 13.787-30.794 30.794v18.555 27.606h131.973v-27.606-18.556c0-17.007-13.787-30.793-30.793-30.793z" fill="#6bdddd"/><path d="m52.959 171.497c-17.007 0-30.794 13.787-30.794 30.794v14.451 4.104 27.606h38.399v-27.606-4.104-45.244h-7.605z" fill="#e0ebfc"/><path d="m125.163 171.554h-9.423v45.187 4.104 27.606h38.399v-27.606-4.104-14.451c-.001-16.396-12.816-29.794-28.976-30.736z" fill="#e0ebfc"/><path d="m88.152 168.94c-10.007 0-19.407-2.55-27.588-7.019v.002 6.574 1.037 1.963c3.074 6.138 7.11 11.745 11.956 16.607l9.78 9.813c1.548 1.553 3.651 2.427 5.844 2.429 2.198.002 4.306-.872 5.857-2.429l9.781-9.813c4.846-4.862 8.883-10.469 11.957-16.607v-3-6.574-.001c-8.18 4.468-17.58 7.018-27.587 7.018z" fill="#f9cfcf"/><path d="m60.564 250.451h-38.399c-1.104 0-2-.896-2-2v-46.161c0-18.083 14.711-32.793 32.794-32.793h7.605c1.104 0 2 .896 2 2v76.954c0 1.104-.895 2-2 2zm-36.399-4h34.399v-72.954h-5.605c-15.877 0-28.794 12.917-28.794 28.793z" fill="#3762cc"/><path d="m154.139 250.451h-38.399c-1.104 0-2-.896-2-2v-76.896c0-1.104.896-2 2-2h9.424c.039 0 .077.001.116.003 17.305 1.009 30.859 15.386 30.859 32.732v46.161c0 1.104-.896 2-2 2zm-36.4-4h34.399v-44.161c0-15.21-11.871-27.821-27.035-28.736h-7.364z" fill="#3762cc"/><path d="m132.861 193.5-17.121-22.004v55.163 21.792h14.163l-6.161-21.792 10.03-27.312c.726-1.976.381-4.186-.911-5.847z" fill="#e0ebfc"/><path d="m43.443 193.5 17.121-22.004v55.163 21.792h-14.163l6.161-21.792-10.03-27.312c-.726-1.976-.381-4.186.911-5.847z" fill="#e0ebfc"/><path d="m129.903 250.451h-14.164c-1.104 0-2-.896-2-2v-76.954c0-.854.543-1.614 1.351-1.892s1.704-.01 2.228.664l17.122 22.004c1.729 2.221 2.181 5.123 1.21 7.764l-9.806 26.703 5.984 21.167c.17.603.048 1.251-.33 1.75-.378.5-.968.794-1.595.794zm-12.164-4h9.521l-5.442-19.248c-.114-.406-.098-.837.048-1.233l10.03-27.312c.49-1.336.262-2.805-.612-3.929l-13.544-17.405v69.127z" fill="#3762cc"/><path d="m60.564 250.451h-14.163c-.627 0-1.217-.293-1.595-.793s-.5-1.147-.33-1.75l5.983-21.167-9.806-26.703c-.971-2.642-.518-5.544 1.211-7.764l17.121-22.004c.523-.674 1.42-.941 2.228-.664s1.351 1.037 1.351 1.892v76.954c0 1.103-.895 1.999-2 1.999zm-11.519-4h9.52v-69.127l-13.543 17.405c-.875 1.124-1.104 2.592-.613 3.929l10.03 27.312c.146.396.162.828.048 1.233zm-5.602-52.951h.01z" fill="#3762cc"/><path d="m154.139 250.451h-131.974c-1.104 0-2-.896-2-2v-46.161c0-18.083 14.711-32.793 32.794-32.793h5.605v-7.574c0-.706.372-1.36.979-1.72s1.358-.374 1.979-.035c8.111 4.43 17.319 6.772 26.628 6.772 9.311 0 18.519-2.342 26.629-6.773.62-.338 1.372-.326 1.979.035s.979 1.014.979 1.72v7.576h5.605c18.083 0 32.794 14.711 32.794 32.793v46.161c.003 1.103-.893 1.999-1.997 1.999zm-129.974-4h127.974v-44.161c0-15.877-12.917-28.793-28.794-28.793h-7.605c-1.104 0-2-.896-2-2v-6.311c-7.947 3.772-16.726 5.753-25.588 5.753-8.863 0-17.641-1.981-25.587-5.754v6.312c0 1.104-.896 2-2 2h-7.605c-15.877 0-28.794 12.917-28.794 28.793v44.161z" fill="#3762cc"/><circle cx="127.525" cy="226.919" fill="#f9cfcf" r="12.843"/><path d="m127.524 235.103c-4.513 0-8.184-3.671-8.184-8.183s3.671-8.184 8.184-8.184 8.184 3.671 8.184 8.184-3.671 8.183-8.184 8.183zm0-12.367c-2.307 0-4.184 1.877-4.184 4.184s1.877 4.183 4.184 4.183 4.184-1.876 4.184-4.183-1.877-4.184-4.184-4.184z" fill="#3762cc"/><circle cx="193.44" cy="195.288" fill="#f9a7a7" r="52.5"/><g fill="#3762cc"><path d="m213.444 210.514h-16.681c-1.104 0-2-.896-2-2s.896-2 2-2h16.681c1.104 0 2 .896 2 2s-.895 2-2 2z"/><path d="m213.444 213.158c-1.104 0-2-.896-2-2v-4.882c0-1.104.896-2 2-2s2 .896 2 2v4.882c0 1.105-.895 2-2 2z"/><path d="m169.912 210.92h-16.681c-1.104 0-2-.896-2-2s.896-2 2-2h16.681c1.104 0 2 .896 2 2s-.895 2-2 2z"/><path d="m153.231 213.158c-1.104 0-2-.896-2-2v-4.882c0-1.104.896-2 2-2s2 .896 2 2v4.882c0 1.105-.895 2-2 2z"/><path d="m183.541 240.824c-1.104 0-2-.896-2-2v-16.681c0-1.104.896-2 2-2s2 .896 2 2v16.681c0 1.104-.895 2-2 2z"/><path d="m185.779 240.824h-4.883c-1.104 0-2-.896-2-2s.896-2 2-2h4.883c1.104 0 2 .896 2 2s-.895 2-2 2z"/><path d="m183.135 197.291c-1.104 0-2-.896-2-2v-16.681c0-1.104.896-2 2-2s2 .896 2 2v16.681c0 1.105-.896 2-2 2z"/><path d="m185.779 180.61h-4.883c-1.104 0-2-.896-2-2s.896-2 2-2h4.883c1.104 0 2 .896 2 2s-.895 2-2 2z"/><path d="m192.688 201.08c-.512 0-1.023-.195-1.414-.586-.781-.781-.781-2.047 0-2.828l11.795-11.795c.781-.781 2.047-.781 2.828 0s.781 2.047 0 2.828l-11.795 11.795c-.391.39-.903.586-1.414.586z"/><path d="m206.353 191.155c-.512 0-1.023-.195-1.414-.586l-3.452-3.452c-.781-.781-.781-2.047 0-2.828s2.047-.781 2.828 0l3.452 3.452c.781.781.781 2.047 0 2.828-.391.39-.903.586-1.414.586z"/><path d="m162.193 232.149c-.512 0-1.023-.195-1.414-.586-.781-.781-.781-2.047 0-2.828l11.795-11.795c.781-.781 2.047-.781 2.828 0s.781 2.047 0 2.828l-11.795 11.795c-.39.391-.902.586-1.414.586z"/><path d="m163.775 233.732c-.512 0-1.023-.195-1.414-.586l-3.452-3.452c-.781-.781-.781-2.047 0-2.828s2.047-.781 2.828 0l3.452 3.452c.781.781.781 2.047 0 2.828-.39.391-.902.586-1.414.586z"/><path d="m204.771 231.862c-.512 0-1.023-.195-1.414-.586l-11.795-11.795c-.781-.781-.781-2.047 0-2.828s2.047-.781 2.828 0l11.795 11.795c.781.781.781 2.047 0 2.828-.391.391-.903.586-1.414.586z"/><path d="m202.9 233.732c-.512 0-1.023-.195-1.414-.586-.781-.781-.781-2.047 0-2.828l3.452-3.452c.781-.781 2.047-.781 2.828 0s.781 2.047 0 2.828l-3.452 3.452c-.39.391-.902.586-1.414.586z"/><path d="m173.7 201.368c-.512 0-1.023-.195-1.414-.586l-11.795-11.795c-.781-.781-.781-2.047 0-2.828s2.047-.781 2.828 0l11.795 11.795c.781.781.781 2.047 0 2.828-.39.39-.902.586-1.414.586z"/><path d="m160.323 191.155c-.512 0-1.023-.195-1.414-.586-.781-.781-.781-2.047 0-2.828l3.452-3.452c.781-.781 2.047-.781 2.828 0s.781 2.047 0 2.828l-3.452 3.452c-.39.39-.902.586-1.414.586z"/></g><circle cx="183.338" cy="208.514" fill="#e0ebfc" r="21.193"/><path d="m183.338 231.707c-12.789 0-23.193-10.404-23.193-23.193s10.404-23.193 23.193-23.193c12.788 0 23.192 10.404 23.192 23.193s-10.404 23.193-23.192 23.193zm0-42.386c-10.583 0-19.193 8.61-19.193 19.193s8.61 19.193 19.193 19.193 19.192-8.61 19.192-19.193-8.609-19.193-19.192-19.193z" fill="#3762cc"/><circle cx="178.541" cy="199.255" fill="#a4c9ff" r="5.717"/><circle cx="187.215" cy="214.647" fill="#a4c9ff" r="7.326"/><path d="m206.021 160.798c-.321 0-.647-.078-.95-.242-.972-.526-1.332-1.739-.807-2.711l4.464-8.247c.526-.97 1.74-1.333 2.711-.807.972.526 1.333 1.739.807 2.711l-4.464 8.247c-.363.669-1.051 1.049-1.761 1.049z" fill="#3762cc"/><path d="m211.792 153.259c-.321 0-.647-.078-.95-.242l-2.413-1.307c-.972-.526-1.333-1.74-.807-2.711s1.739-1.333 2.711-.807l2.413 1.307c.972.526 1.332 1.74.807 2.711-.363.669-1.05 1.049-1.761 1.049z" fill="#3762cc"/><path d="m194.57 182.429c-.321 0-.647-.078-.95-.242-.972-.526-1.333-1.74-.807-2.711l4.465-8.247c.526-.971 1.739-1.333 2.711-.807s1.333 1.74.807 2.711l-4.465 8.247c-.362.67-1.05 1.049-1.761 1.049z" fill="#3762cc"/><path d="m195.677 183.028c-.321 0-.647-.078-.95-.242l-2.414-1.307c-.972-.526-1.333-1.739-.807-2.711.526-.97 1.738-1.333 2.711-.807l2.414 1.307c.972.526 1.333 1.739.807 2.711-.363.669-1.05 1.049-1.761 1.049z" fill="#3762cc"/><path d="m217.467 175.447c-.321 0-.647-.078-.95-.242l-8.247-4.464c-.972-.526-1.332-1.74-.807-2.711.526-.97 1.738-1.333 2.711-.807l8.247 4.464c.972.526 1.332 1.74.807 2.711-.363.669-1.05 1.049-1.761 1.049z" fill="#3762cc"/><path d="m216.759 176.755c-.321 0-.647-.078-.95-.242-.972-.526-1.333-1.739-.807-2.711l1.307-2.414c.526-.97 1.739-1.333 2.711-.807s1.333 1.739.807 2.711l-1.307 2.414c-.363.669-1.05 1.049-1.761 1.049z" fill="#3762cc"/><path d="m195.835 163.997c-.321 0-.647-.078-.95-.242l-8.247-4.464c-.972-.526-1.332-1.74-.807-2.711.526-.97 1.739-1.333 2.711-.807l8.247 4.464c.972.526 1.332 1.74.807 2.711-.363.669-1.05 1.049-1.761 1.049z" fill="#3762cc"/><path d="m186.989 160.639c-.321 0-.647-.078-.95-.242-.972-.526-1.333-1.739-.807-2.711l1.307-2.414c.526-.97 1.738-1.333 2.711-.807.972.526 1.333 1.739.807 2.711l-1.307 2.414c-.362.669-1.05 1.049-1.761 1.049z" fill="#3762cc"/><path d="m200.267 160.288c-.861 0-1.657-.562-1.916-1.43l-2.675-8.988c-.315-1.059.288-2.172 1.347-2.487 1.056-.315 2.171.287 2.487 1.347l2.675 8.988c.315 1.059-.288 2.172-1.347 2.487-.191.056-.382.083-.571.083z" fill="#3762cc"/><path d="m196.386 151.659c-.862 0-1.657-.562-1.916-1.43-.315-1.059.288-2.172 1.347-2.487l2.631-.783c1.058-.314 2.172.287 2.487 1.347.315 1.059-.288 2.172-1.347 2.487l-2.631.783c-.19.056-.382.083-.571.083z" fill="#3762cc"/><path d="m207.466 183.68c-.861 0-1.657-.562-1.916-1.43l-2.675-8.988c-.315-1.059.288-2.172 1.347-2.487 1.055-.313 2.171.287 2.487 1.347l2.675 8.988c.315 1.059-.288 2.172-1.347 2.487-.19.056-.382.083-.571.083z" fill="#3762cc"/><path d="m206.04 184.104c-.862 0-1.657-.562-1.916-1.43-.315-1.059.288-2.172 1.347-2.487l2.631-.783c1.059-.313 2.172.288 2.487 1.347s-.288 2.172-1.347 2.487l-2.631.783c-.19.056-.382.083-.571.083z" fill="#3762cc"/><path d="m209.73 165.228c-.862 0-1.657-.562-1.916-1.43-.315-1.059.288-2.172 1.347-2.487l8.988-2.674c1.058-.314 2.172.287 2.487 1.347.315 1.059-.288 2.172-1.347 2.487l-8.988 2.674c-.19.056-.381.083-.571.083z" fill="#3762cc"/><path d="m219.143 163.978c-.862 0-1.658-.562-1.916-1.431l-.782-2.631c-.314-1.059.288-2.172 1.347-2.487 1.062-.317 2.173.289 2.487 1.347l.782 2.631c.314 1.059-.288 2.172-1.347 2.487-.191.057-.383.084-.571.084z" fill="#3762cc"/><path d="m186.338 172.427c-.862 0-1.657-.562-1.916-1.43-.315-1.059.288-2.172 1.347-2.487l8.988-2.674c1.059-.313 2.172.288 2.487 1.347s-.288 2.172-1.347 2.487l-8.988 2.674c-.19.056-.382.083-.571.083z" fill="#3762cc"/><path d="m186.697 173.633c-.861 0-1.657-.562-1.916-1.43l-.783-2.631c-.315-1.059.288-2.172 1.347-2.488 1.056-.315 2.171.287 2.487 1.346l.783 2.631c.315 1.059-.288 2.172-1.347 2.488-.19.057-.381.084-.571.084z" fill="#3762cc"/><circle cx="202.429" cy="165.435" fill="#e0ebfc" r="11.915"/><path d="m202.411 179.356c-2.283 0-4.543-.567-6.606-1.685-3.269-1.769-5.652-4.706-6.713-8.268-1.06-3.563-.669-7.324 1.101-10.593s4.706-5.652 8.269-6.712c3.561-1.06 7.323-.669 10.592 1.1s5.652 4.706 6.713 8.268c1.06 3.563.669 7.324-1.101 10.593-1.769 3.269-4.705 5.653-8.268 6.713-1.314.391-2.655.584-3.987.584zm.03-23.84c-.949 0-1.904.138-2.84.416-2.538.755-4.631 2.454-5.892 4.783s-1.539 5.009-.784 7.547c.756 2.539 2.454 4.63 4.783 5.891 2.33 1.261 5.011 1.539 7.548.784 2.538-.755 4.63-2.454 5.891-4.783 1.261-2.329 1.539-5.009.784-7.547-.756-2.539-2.454-4.63-4.783-5.891-1.469-.796-3.08-1.2-4.707-1.2z" fill="#3762cc"/><circle cx="196.568" cy="165.329" fill="#a4c9ff" r="3.214"/><circle cx="206.499" cy="165.16" fill="#a4c9ff" r="4.118"/><path d="m127.524 241.762c-8.184 0-14.842-6.658-14.842-14.842 0-8.185 6.658-14.843 14.842-14.843 8.185 0 14.843 6.658 14.843 14.843 0 8.184-6.658 14.842-14.843 14.842zm0-25.685c-5.979 0-10.842 4.864-10.842 10.843s4.863 10.842 10.842 10.842 10.843-4.864 10.843-10.842-4.864-10.843-10.843-10.843z" fill="#3762cc"/><path d="m127.525 227.108c-1.838 0-3.33-1.491-3.33-3.33v-43.76c0-9.246-7.522-16.768-16.768-16.768h-36.976c-9.246 0-16.768 7.522-16.768 16.768 0 1.839-1.491 3.33-3.33 3.33s-3.33-1.491-3.33-3.33c0-12.918 10.51-23.427 23.428-23.427h36.976c12.918 0 23.428 10.509 23.428 23.427v43.76c-.001 1.839-1.492 3.33-3.33 3.33z" fill="#a4c9ff"/><path d="m127.524 229.108c-2.938 0-5.329-2.391-5.329-5.33v-43.76c0-8.143-6.625-14.768-14.769-14.768h-36.976c-8.144 0-14.769 6.625-14.769 14.768 0 2.939-2.391 5.33-5.329 5.33s-5.329-2.391-5.329-5.33c0-14.021 11.406-25.427 25.427-25.427h36.977c14.021 0 25.428 11.407 25.428 25.427v43.76c-.001 2.939-2.391 5.33-5.331 5.33zm-57.074-67.858h36.977c10.349 0 18.769 8.419 18.769 18.768v43.76c0 .733.597 1.33 1.329 1.33.733 0 1.33-.597 1.33-1.33v-43.76c0-11.815-9.612-21.427-21.428-21.427h-36.977c-11.814 0-21.427 9.612-21.427 21.427 0 .733.597 1.33 1.329 1.33s1.329-.597 1.329-1.33c.001-10.348 8.421-18.768 18.769-18.768z" fill="#3762cc"/><path d="m145.724 90.785c-.122 0-.24.016-.362.018v-5.35c0-31.269-25.614-56.617-57.21-56.617-31.596 0-57.21 25.348-57.21 56.617v5.35c-.121-.002-.24-.018-.362-.018-9.639 0-17.454 7.733-17.454 17.273s7.815 17.273 17.454 17.273c.633 0 1.257-.037 1.873-.102 5.904 25.047 28.591 43.711 55.699 43.711 27.108 0 49.796-18.664 55.699-43.711.616.065 1.24.102 1.873.102 9.639 0 17.454-7.733 17.454-17.273s-7.815-17.273-17.454-17.273z" fill="#f9cfcf"/><path d="m88.145 144.126c-1.659 0-3.11-.196-4.437-.599-2.199-.667-4.13-1.794-5.584-3.259-1.847-1.858-2.864-4.201-2.864-6.597 0-1.104.896-2 2-2s2 .896 2 2c0 1.351.589 2.657 1.702 3.778.989.996 2.341 1.774 3.909 2.25.943.287 2.014.426 3.273.426s2.33-.139 3.272-.426c1.569-.476 2.922-1.254 3.911-2.25 1.113-1.121 1.701-2.427 1.701-3.778 0-1.104.896-2 2-2s2 .896 2 2c0 2.395-1.017 4.738-2.863 6.597-1.455 1.465-3.387 2.591-5.586 3.259-1.324.403-2.775.599-4.434.599z" fill="#3762cc"/><path d="m59.845 120.346c-3.618 0-6.561-2.939-6.561-6.551v-10.92c0-3.613 2.943-6.552 6.561-6.552 3.617 0 6.56 2.939 6.56 6.552v10.92c0 3.612-2.943 6.551-6.56 6.551z" fill="#3762cc"/><path d="m116.433 120.346c-3.618 0-6.561-2.939-6.561-6.551v-10.92c0-3.613 2.943-6.552 6.561-6.552 3.617 0 6.56 2.939 6.56 6.552v10.92c0 3.612-2.943 6.551-6.56 6.551z" fill="#3762cc"/><path d="m88.152 170.939c-27.09 0-50.386-17.847-57.235-43.612-.113.002-.226.003-.337.003-10.727 0-19.454-8.646-19.454-19.273 0-10.081 7.853-18.378 17.815-19.205v-3.399c0-32.321 26.562-58.617 59.211-58.617 32.648 0 59.21 26.295 59.21 58.617v3.399c9.963.827 17.815 9.125 17.815 19.205 0 10.627-8.728 19.273-19.454 19.273-.111 0-.224-.001-.337-.003-6.849 25.765-30.144 43.612-57.234 43.612zm-55.698-47.71c.917 0 1.73.63 1.944 1.541 5.854 24.829 27.958 42.17 53.754 42.17s47.899-17.341 53.753-42.17c.229-.98 1.153-1.641 2.156-1.53.572.06 1.131.091 1.662.091 8.521 0 15.454-6.852 15.454-15.273 0-8.418-6.928-15.268-15.444-15.273-.154.011-.242.016-.331.018-.488.01-1.056-.195-1.439-.571-.385-.376-.601-.891-.601-1.428v-5.35c0-30.116-24.767-54.617-55.21-54.617s-55.211 24.5-55.211 54.616v5.35c0 .538-.216 1.052-.601 1.428-.384.376-.916.581-1.439.571-.09-.002-.178-.007-.266-.013-.003 0-.006 0-.008 0-8.573 0-15.502 6.85-15.502 15.269 0 8.421 6.933 15.273 15.454 15.273.531 0 1.09-.031 1.662-.091.072-.008.143-.011.213-.011z" fill="#3762cc"/><path d="m12.146 70.743c-2.589-6.933-2.773-14.534-.523-21.583l.193-.606c3.681-11.532 13.381-20.123 25.273-22.385 5.613-1.068 11.407-.66 16.815 1.184l.632.216c.036.328.092.657.172.984 2.597 10.615 7.364 20.398 13.841 28.805-5.621 15.662-12.499 24.591-17.743 29.534v.001l-6.882 6.985-13.344-3.093c-3.646 0-7.029 1.11-9.829 3.002z" fill="#4671c6"/><path d="m155.951 47.003c-4.489-13.928-14.741-24.995-27.85-30.451l.001-.007c-46.081-22.683-71.284 4.683-71.284 4.683-1.897 1.825-2.777 4.601-2.11 7.325 5.29 21.624 19.543 39.83 39.048 49.878l.027.014c4.211 2.169 8.607 3.94 13.135 5.291 1.126.336 2.034-.968 1.352-1.941l-9.475-13.521c-.826-1.179.625-2.617 1.751-1.735 10.477 8.204 30.833 21.796 51.424 22.478l3.353-9.183c3.855-10.554 4.076-22.131.628-32.831z" fill="#4671c6"/><path d="m43.925 95.879c-.15 0-.302-.017-.452-.052l-13.114-3.041c-3.045.042-5.975.959-8.487 2.658-.508.343-1.145.436-1.729.248-.584-.187-1.05-.631-1.265-1.205l-8.605-23.044c-2.732-7.318-2.93-15.447-.554-22.89l.193-.606c3.908-12.243 14.18-21.34 26.804-23.741 5.944-1.131 12.11-.696 17.835 1.255l.632.215c.734.25 1.258.903 1.343 1.674.026.243.067.486.126.729 2.512 10.266 7.048 19.706 13.482 28.059.416.54.528 1.255.299 1.896-5.876 16.371-13.169 25.521-18.253 30.313l-6.829 6.935c-.381.386-.897.597-1.426.597zm-13.345-7.094c.152 0 .304.018.452.052l12.254 2.841 6.096-6.188c4.713-4.446 11.378-12.808 16.914-27.791-6.411-8.562-10.957-18.182-13.517-28.611-4.934-1.593-10.22-1.923-15.316-.953-11.183 2.126-20.279 10.184-23.741 21.028l-.193.605c-2.104 6.593-1.93 13.793.491 20.275l7.774 20.818c2.711-1.364 5.706-2.076 8.786-2.076z" fill="#3762cc"/><path d="m151.971 91.018c-.021 0-.044 0-.066-.001-18.866-.625-37.444-11.73-48.734-19.984l6.738 9.615c.813 1.159.802 2.65-.026 3.797-.816 1.131-2.203 1.606-3.536 1.208-4.634-1.383-9.169-3.209-13.479-5.43-20.063-10.335-34.67-28.99-40.102-51.195-.811-3.314.195-6.834 2.625-9.202.639-.679 7.136-7.351 19.159-11.344 11.359-3.772 30.023-5.748 54.436 6.268.015.007.028.014.042.021 13.702 5.757 24.203 17.272 28.827 31.618 3.571 11.08 3.34 23.201-.651 34.131l-3.354 9.183c-.289.792-1.041 1.315-1.879 1.315zm-52.182-26.756c.692 0 1.39.233 1.991.704 9.91 7.761 29.23 20.749 48.816 21.984l2.849-7.8c3.688-10.097 3.901-21.295.603-31.532-4.282-13.284-14.02-23.934-26.715-29.218-.092-.038-.179-.083-.262-.132-44.135-21.645-68.539 4.052-68.782 4.315-.026.029-.055.058-.084.086-1.437 1.383-2.032 3.456-1.555 5.409 5.157 21.079 19.016 38.784 38.021 48.575 3.456 1.78 7.044 3.288 10.708 4.502l-8.223-11.732c-.94-1.342-.762-3.133.426-4.26.632-.599 1.417-.901 2.207-.901z" fill="#3762cc"/><path d="m39.393 246.09h-7.934c-2.768 0-5.02-2.252-5.02-5.021v-24.799c0-1.104.896-2 2-2s2 .896 2 2v24.799c0 .563.457 1.021 1.02 1.021h7.934c1.104 0 2 .896 2 2s-.896 2-2 2z" fill="#3762cc"/><path d="m69.603 246.09h-7.934c-1.104 0-2-.896-2-2s.896-2 2-2h7.934c.563 0 1.02-.458 1.02-1.021v-24.799c0-1.104.896-2 2-2s2 .896 2 2v24.799c-.001 2.769-2.253 5.021-5.02 5.021z" fill="#3762cc"/><path d="m40.975 247.811h-2.392c-2.055 0-3.72-1.666-3.72-3.72 0-2.055 1.666-3.72 3.72-3.72h2.392c2.055 0 3.72 1.666 3.72 3.72 0 2.054-1.666 3.72-3.72 3.72z" fill="#f9cfcf"/><path d="m62.486 247.811h-2.392c-2.055 0-3.72-1.666-3.72-3.72 0-2.055 1.666-3.72 3.72-3.72h2.392c2.055 0 3.72 1.666 3.72 3.72 0 2.054-1.665 3.72-3.72 3.72z" fill="#f9cfcf"/><path d="m31.459 230.787v-19.646c0-10.669 8.731-19.683 19.399-19.502 10.366.175 18.744 8.662 18.744 19.069v20.08c0 1.251 1.014 2.265 2.265 2.265h1.51c1.251 0 2.265-1.014 2.265-2.265v-19.579c0-14.051-11.498-25.848-25.546-25.609-13.648.232-24.678 11.407-24.678 25.108v20.08c0 1.251 1.014 2.265 2.265 2.265h1.51c1.252-.001 2.266-1.015 2.266-2.266z" fill="#f9a7a7"/><path d="m50.097 185.599c2.629-.045 5.169.332 7.561 1.067v-1.478c0-3.263-2.645-5.908-5.908-5.908h-2.438c-3.263 0-5.908 2.645-5.908 5.908v1.445c2.128-.632 4.371-.995 6.693-1.034z" fill="#f9a7a7"/><path d="m73.378 235.052h-1.511c-2.352 0-4.265-1.914-4.265-4.265v-20.08c0-9.255-7.526-16.912-16.778-17.069-4.466-.073-8.762 1.663-12.051 4.896-3.377 3.321-5.314 7.916-5.314 12.606v19.646c0 2.352-1.913 4.265-4.265 4.265h-1.511c-2.352 0-4.265-1.914-4.265-4.265v-20.08c0-14.697 11.952-26.858 26.644-27.108 7.217-.146 14.009 2.639 19.232 7.774 5.306 5.216 8.349 12.445 8.349 19.834v19.58c.001 2.353-1.913 4.266-4.265 4.266zm-22.837-45.416c.117 0 .233.001.352.003 11.419.193 20.71 9.644 20.71 21.068v20.08c0 .146.119.265.265.265h1.511c.146 0 .266-.119.266-.265v-19.58c0-6.323-2.607-12.513-7.152-16.981-4.454-4.378-10.274-6.735-16.36-6.628-12.523.213-22.712 10.58-22.712 23.109v20.08c0 .146.119.265.265.265h1.511c.146 0 .265-.119.265-.265v-19.646c0-5.756 2.373-11.391 6.511-15.459 3.969-3.907 9.132-6.046 14.568-6.046z" fill="#3762cc"/><path d="m57.658 188.666c-.197 0-.395-.029-.587-.088-2.247-.69-4.588-1.017-6.94-.979-2.076.036-4.148.356-6.159.952-.604.179-1.259.063-1.765-.315-.506-.377-.804-.971-.804-1.603v-1.445c0-4.36 3.548-7.908 7.908-7.908h2.438c4.36 0 7.908 3.548 7.908 7.908v1.478c0 .634-.301 1.231-.812 1.608-.346.257-.764.392-1.187.392zm-7.561-3.067h.01zm.42-2.004c1.677 0 3.342.159 4.979.474-.482-1.612-1.979-2.79-3.745-2.79h-2.438c-1.762 0-3.255 1.171-3.741 2.776 1.484-.278 2.987-.431 4.492-.456.15-.003.301-.004.453-.004z" fill="#3762cc"/><path d="m40.975 249.811h-2.393c-3.154 0-5.72-2.566-5.72-5.72s2.565-5.72 5.72-5.72h2.393c3.154 0 5.721 2.566 5.721 5.72s-2.567 5.72-5.721 5.72zm-2.393-7.441c-.948 0-1.72.771-1.72 1.72s.771 1.72 1.72 1.72h2.393c.949 0 1.721-.771 1.721-1.72s-.771-1.72-1.721-1.72z" fill="#3762cc"/><path d="m62.486 249.811h-2.393c-3.154 0-5.72-2.566-5.72-5.72s2.565-5.72 5.72-5.72h2.393c3.154 0 5.72 2.566 5.72 5.72s-2.565 5.72-5.72 5.72zm-2.392-7.441c-.948 0-1.72.771-1.72 1.72s.771 1.72 1.72 1.72h2.393c.948 0 1.72-.771 1.72-1.72s-.771-1.72-1.72-1.72z" fill="#3762cc"/><path d="m193.44 249.789c-30.052 0-54.5-24.449-54.5-54.5s24.448-54.5 54.5-54.5 54.5 24.449 54.5 54.5-24.448 54.5-54.5 54.5zm0-105c-27.846 0-50.5 22.654-50.5 50.5s22.654 50.5 50.5 50.5 50.5-22.654 50.5-50.5-22.654-50.5-50.5-50.5z" fill="#3762cc"/><path d="m68.258 126.451h-16c-8.822 0-16-7.178-16-16v-15c0-2.757 2.243-5 5-5h38c2.757 0 5 2.243 5 5v15c0 8.822-7.178 16-16 16zm-27-32c-.552 0-1 .449-1 1v15c0 6.617 5.383 12 12 12h16c6.617 0 12-5.383 12-12v-15c0-.551-.448-1-1-1z" fill="#3762cc"/><path d="m124.258 126.451h-16c-8.822 0-16-7.178-16-16v-15c0-2.757 2.243-5 5-5h38c2.757 0 5 2.243 5 5v15c0 8.822-7.178 16-16 16zm-27-32c-.552 0-1 .449-1 1v15c0 6.617 5.383 12 12 12h16c6.617 0 12-5.383 12-12v-15c0-.551-.448-1-1-1z" fill="#3762cc"/><path d="m96.757 105.451h-17c-1.933 0-3.5-1.567-3.5-3.5 0-1.933 1.567-3.5 3.5-3.5h17c1.933 0 3.5 1.567 3.5 3.5 0 1.933-1.567 3.5-3.5 3.5z" fill="#a4c9ff"/><path d="m96.758 107.451h-17c-3.032 0-5.5-2.467-5.5-5.5s2.468-5.5 5.5-5.5h17c3.032 0 5.5 2.467 5.5 5.5s-2.468 5.5-5.5 5.5zm-17-7c-.827 0-1.5.673-1.5 1.5s.673 1.5 1.5 1.5h17c.827 0 1.5-.673 1.5-1.5s-.673-1.5-1.5-1.5z" fill="#3762cc"/></svg>