<svg id="Layer_1" enable-background="new 0 0 256 256" height="512" viewBox="0 0 256 256" width="512" xmlns="http://www.w3.org/2000/svg"><g><g><g><path d="m246 239.428h-236c-3.866 0-7-3.134-7-7v-171c0-3.866 3.134-7 7-7h236c3.866 0 7 3.134 7 7v171c0 3.866-3.134 7-7 7z" fill="#4671c6"/></g></g><g><g><path d="m253 164.692h-7.632c-4.621 0-8.368 3.747-8.368 8.368s-3.747 8.368-8.368 8.368h-33.632c-5.523 0-10 4.477-10 10v16c0 5.523 4.477 10 10 10h58z" fill="#6bdddd"/></g></g><g><g><path d="m246 54.428h-94v17.25c0 5.385 4.365 9.75 9.75 9.75h24.882c4.621 0 8.368 3.747 8.368 8.368v2.882c0 5.385-4.365 9.75-9.75 9.75s-9.75 4.365-9.75 9.75v10.5c0 5.385 4.365 9.75 9.75 9.75h67.75v-71c0-3.866-3.134-7-7-7z" fill="#6bdddd"/></g></g><g><g><path d="m124 187.928h-59.132c-4.621 0-8.368-3.747-8.368-8.368v-15.264c0-4.622 3.747-8.368 8.368-8.368h25.844c5.523 0 10-4.477 10-10v-13.5c0-5.523-4.477-10-10-10h-12.344c-4.621 0-8.368-3.747-8.368-8.368v-3.764c0-4.622-3.747-8.368-8.368-8.368h-58.632v120.5h121c5.523 0 10-4.477 10-10v-14.5c0-5.523-4.477-10-10-10z" fill="#6bdddd"/></g></g><g><g><circle cx="51.856" cy="133.474" fill="#f9a7a7" r="9.015"/></g></g><g><g><path d="m246 241.429h-236c-4.963 0-9-4.037-9-9v-171c0-4.963 4.037-9 9-9h236c4.963 0 9 4.037 9 9v171c0 4.963-4.037 9-9 9zm-236-185c-2.757 0-5 2.243-5 5v171c0 2.757 2.243 5 5 5h236c2.757 0 5-2.243 5-5v-171c0-2.757-2.243-5-5-5z" fill="#3762cc"/></g></g><g><g><path d="m253 219.429h-58c-6.617 0-12-5.383-12-12v-16c0-6.617 5.383-12 12-12h33.632c3.512 0 6.368-2.856 6.368-6.368 0-5.717 4.651-10.368 10.368-10.368h7.632c1.104 0 2 .896 2 2v52.736c0 1.104-.896 2-2 2zm-58-36c-4.411 0-8 3.589-8 8v16c0 4.411 3.589 8 8 8h56v-48.736h-5.632c-3.512 0-6.368 2.856-6.368 6.368 0 5.717-4.651 10.368-10.368 10.368z" fill="#3762cc"/></g></g><g><g><path d="m253 134.429h-67.75c-6.479 0-11.75-5.271-11.75-11.75v-10.5c0-6.479 5.271-11.75 11.75-11.75 4.273 0 7.75-3.477 7.75-7.75v-2.882c0-3.512-2.856-6.368-6.368-6.368h-24.882c-6.479 0-11.75-5.271-11.75-11.75v-17.25c0-1.104.896-2 2-2h94c4.963 0 9 4.037 9 9v71c0 1.104-.896 2-2 2zm-99-78v15.25c0 4.273 3.477 7.75 7.75 7.75h24.882c5.717 0 10.368 4.651 10.368 10.368v2.882c0 6.479-5.271 11.75-11.75 11.75-4.273 0-7.75 3.477-7.75 7.75v10.5c0 4.273 3.477 7.75 7.75 7.75h65.75v-69c0-2.757-2.243-5-5-5z" fill="#3762cc"/></g></g><g><g><path d="m124 224.429h-121c-1.104 0-2-.896-2-2v-120.5c0-1.104.896-2 2-2h58.632c5.717 0 10.368 4.651 10.368 10.368v3.764c0 3.512 2.856 6.368 6.368 6.368h12.344c6.617 0 12 5.383 12 12v13.5c0 6.617-5.383 12-12 12h-25.844c-3.512 0-6.368 2.856-6.368 6.368v15.264c0 3.512 2.856 6.368 6.368 6.368h59.132c6.617 0 12 5.383 12 12v14.5c0 6.617-5.383 12-12 12zm-119-4h119c4.411 0 8-3.589 8-8v-14.5c0-4.411-3.589-8-8-8h-59.132c-5.717 0-10.368-4.651-10.368-10.368v-15.264c0-5.717 4.651-10.368 10.368-10.368h25.844c4.411 0 8-3.589 8-8v-13.5c0-4.411-3.589-8-8-8h-12.344c-5.717 0-10.368-4.651-10.368-10.368v-3.764c0-3.512-2.856-6.368-6.368-6.368h-56.632z" fill="#3762cc"/></g></g><g><g><path d="m100.712 65.427c0-26.982-21.873-48.856-48.856-48.856s-48.856 21.874-48.856 48.856c0 22.863 15.706 42.052 36.916 47.38l10.055 17.574c.834 1.457 2.935 1.457 3.769 0l10.055-17.574c21.21-5.328 36.917-24.517 36.917-47.38z" fill="#f9a7a7"/></g></g><g><g><path d="m51.855 133.475c-1.515 0-2.868-.785-3.621-2.101l-9.637-16.843c-22.181-5.966-37.597-26.035-37.597-49.103 0-28.042 22.813-50.856 50.855-50.856s50.856 22.814 50.856 50.856c0 23.068-15.416 43.137-37.598 49.104l-9.638 16.843c-.751 1.314-2.105 2.1-3.62 2.1zm0-114.904c-25.835 0-46.855 21.02-46.855 46.857 0 21.518 14.559 40.204 35.403 45.44.527.132.979.474 1.249.946l10.055 17.573c.017.03.049.087.148.087s.132-.057.148-.087l10.056-17.573c.271-.473.722-.814 1.249-.946 20.845-5.237 35.403-23.923 35.403-45.44.001-25.837-21.019-46.857-46.856-46.857z" fill="#3762cc"/></g></g><g><g><g><path d="m86.87 60.736c-1.393 0-2.524 1.066-2.656 2.425h-4.209c-.545-5.796-2.836-11.084-6.347-15.329l2.974-2.975c1.117.92 2.649.78 3.592-.164 1.048-1.047 1.048-2.745 0-3.792l-1.714-1.714-1.714-1.714c-1.047-1.047-2.745-1.047-3.792 0-.985.985-1.032 2.539-.164 3.592l-2.975 2.975c-4.245-3.511-9.533-5.801-15.328-6.347v-4.209c1.358-.131 2.424-1.263 2.424-2.656 0-1.481-1.201-2.681-2.682-2.681h-4.849c-1.481 0-2.682 1.2-2.682 2.681 0 1.393 1.066 2.524 2.425 2.656v4.209c-5.796.545-11.084 2.836-15.329 6.347l-2.975-2.975c.868-1.054.821-2.607-.164-3.592-1.047-1.047-2.745-1.047-3.792 0-.213.213-.044.044-3.429 3.429-1.048 1.047-1.048 2.745 0 3.792.943.943 2.475 1.084 3.592.164l2.975 2.975c-3.51 4.245-5.801 9.533-6.347 15.329h-4.209c-.131-1.358-1.263-2.425-2.656-2.425-1.481 0-2.682 1.201-2.682 2.682v4.849c0 1.481 1.201 2.681 2.682 2.681 1.393 0 2.525-1.066 2.656-2.424h4.209c.545 5.796 2.836 11.084 6.347 15.329l-2.975 2.975c-1.053-.868-2.607-.822-3.592.163-1.047 1.047-1.047 2.745 0 3.792.076.076 1.714 1.714 1.714 1.714.959.639 1.727 2.5 3.611 2.5.686 0 1.373-.262 1.896-.785.985-.985 1.031-2.539.164-3.592l2.975-2.975c4.245 3.511 9.533 5.801 15.329 6.347v4.209c-1.359.131-2.425 1.263-2.425 2.656 0 1.481 1.201 2.681 2.682 2.681h4.849c1.481 0 2.682-1.201 2.682-2.681 0-1.393-1.066-2.524-2.424-2.656v-4.209c5.796-.545 11.084-2.836 15.329-6.347l2.975 2.975c-.868 1.053-.821 2.607.164 3.592.523.523 1.21.785 1.896.785s1.373-.262 1.896-.785l1.714-1.714 1.714-1.714c1.047-1.047 1.047-2.745 0-3.792-.984-.985-2.538-1.031-3.592-.164l-2.974-2.974c3.51-4.245 5.801-9.533 6.347-15.329h4.209c.131 1.359 1.263 2.424 2.656 2.424 1.481 0 2.682-1.2 2.682-2.681v-4.849c-.001-1.483-1.202-2.684-2.683-2.684z" fill="#6bdddd"/></g></g><g><g><circle cx="51.856" cy="65.843" fill="#4671c6" r="21.545"/></g></g><g><g><g><circle cx="47.703" cy="60.947" fill="#e0ebfc" r="7.969"/></g></g><g><g><circle cx="59.544" cy="74.274" fill="#e0ebfc" r="4.433"/></g></g></g><g><g><path d="m67.39 61.393c-.942.942-2.47.942-3.413 0l-3.413-3.413c-.942-.942-.942-2.47 0-3.413.942-.942 2.47-.942 3.413 0l3.413 3.413c.943.943.943 2.471 0 3.413z" fill="#a4c9ff"/></g></g><g><g><path d="m45.795 78.459c-.942.942-2.47.942-3.413 0l-3.413-3.413c-.942-.942-.942-2.47 0-3.413.942-.942 2.47-.942 3.413 0l3.413 3.413c.942.943.942 2.47 0 3.413z" fill="#f9a7a7"/></g></g><g><g><path d="m54.28 105.538h-4.849c-2.581 0-4.682-2.101-4.682-4.682 0-1.761.966-3.299 2.424-4.094v-1.005c-4.771-.739-9.263-2.6-13.162-5.45l-.709.71c.468 1.593.063 3.363-1.182 4.608-.884.884-2.06 1.371-3.31 1.371-2.196 0-3.465-1.445-4.224-2.309-.17-.193-.402-.459-.5-.529-.087-.063-.227-.173-.302-.248l-1.714-1.714c-1.825-1.825-1.825-4.795 0-6.62 1.245-1.244 3.018-1.648 4.608-1.182l.71-.709c-2.851-3.899-4.711-8.392-5.45-13.162h-1.005c-.795 1.458-2.333 2.424-4.094 2.424-2.581 0-4.682-2.101-4.682-4.682v-4.849c0-2.581 2.101-4.682 4.682-4.682 1.761 0 3.299.967 4.094 2.425h1.005c.739-4.771 2.6-9.263 5.45-13.163l-.709-.709c-1.594.471-3.364.063-4.609-1.181-1.824-1.825-1.824-4.796-.001-6.62l3.43-3.43c.885-.884 2.06-1.371 3.31-1.371h.002c1.251.001 2.426.488 3.31 1.373 1.244 1.243 1.649 3.014 1.181 4.607l.709.71c3.9-2.852 8.392-4.712 13.162-5.45v-1.005c-1.458-.796-2.424-2.335-2.424-4.095 0-2.581 2.101-4.682 4.682-4.682h4.849c2.581 0 4.682 2.101 4.682 4.682 0 1.761-.967 3.299-2.425 4.095v1.005c4.771.738 9.263 2.599 13.163 5.45l.709-.71c-.469-1.593-.063-3.364 1.182-4.609 1.823-1.823 4.793-1.826 6.62.001l3.429 3.429c.885.884 1.371 2.06 1.371 3.311s-.487 2.427-1.373 3.311c-1.243 1.243-3.013 1.646-4.607 1.18l-.71.709c2.852 3.9 4.712 8.393 5.45 13.163h1.005c.796-1.458 2.334-2.425 4.095-2.425 2.581 0 4.682 2.101 4.682 4.682v4.849c0 2.581-2.101 4.682-4.682 4.682-1.76 0-3.299-.966-4.095-2.424h-1.005c-.738 4.771-2.599 9.263-5.45 13.162l.71.709c1.596-.467 3.365-.063 4.609 1.183.884.882 1.371 2.058 1.371 3.309s-.486 2.427-1.371 3.311l-3.429 3.429c-.884.884-2.06 1.371-3.311 1.371-1.252 0-2.428-.487-3.312-1.372-1.244-1.244-1.648-3.016-1.18-4.608l-.708-.71c-3.899 2.851-8.392 4.711-13.163 5.45v1.005c1.458.796 2.425 2.334 2.425 4.094 0 2.581-2.101 4.681-4.682 4.681zm-20.434-19.892c.451 0 .903.151 1.274.459 4.066 3.363 8.991 5.402 14.241 5.896 1.027.097 1.813.959 1.813 1.991v4.209c0 1.03-.782 1.892-1.809 1.991-.351.033-.615.319-.615.664 0 .376.306.682.682.682h4.849c.376 0 .682-.306.682-.682 0-.345-.266-.631-.618-.665-1.024-.099-1.807-.961-1.807-1.99v-4.209c0-1.032.785-1.895 1.813-1.991 5.251-.494 10.176-2.533 14.242-5.896.793-.658 1.958-.604 2.688.127l2.975 2.975c.729.729.784 1.892.129 2.687-.224.271-.209.661.035.905.174.174.376.199.481.199s.309-.026.482-.199l3.429-3.429c.173-.174.199-.376.199-.481s-.026-.309-.199-.481c-.244-.245-.634-.259-.908-.035-.793.655-1.956.599-2.685-.13l-2.975-2.975c-.729-.729-.784-1.894-.127-2.688 3.364-4.067 5.403-8.991 5.896-14.241.097-1.027.959-1.813 1.991-1.813h4.209c1.029 0 1.892.782 1.99 1.807.034.352.32.617.666.617.376 0 .682-.306.682-.682v-4.849c0-.376-.306-.682-.682-.682-.346 0-.632.266-.666.618-.099 1.024-.961 1.807-1.99 1.807h-4.209c-1.032 0-1.895-.785-1.991-1.813-.493-5.249-2.532-10.174-5.896-14.242-.657-.795-.603-1.959.127-2.688l2.975-2.975c.729-.729 1.891-.784 2.686-.13.329.271.7.172.906-.033.174-.174.2-.377.2-.482s-.026-.308-.199-.481l-3.429-3.428c-.266-.268-.698-.268-.964-.002-.244.244-.259.635-.034.907.654.795.599 1.957-.13 2.686l-2.975 2.975c-.73.73-1.895.785-2.688.127-4.068-3.364-8.993-5.403-14.242-5.896-1.027-.097-1.813-.959-1.813-1.991v-4.209c0-1.029.782-1.892 1.807-1.99.353-.034.618-.32.618-.666 0-.376-.306-.682-.682-.682h-4.849c-.376 0-.682.306-.682.682 0 .346.266.632.617.666 1.024.099 1.807.961 1.807 1.99v4.209c0 1.032-.785 1.895-1.813 1.991-5.249.493-10.173 2.532-14.241 5.896-.794.657-1.959.603-2.688-.127l-2.975-2.975c-.729-.728-.784-1.89-.13-2.685.225-.273.21-.663-.033-.906-.175-.175-.378-.2-.482-.201-.001 0-.001 0-.001 0-.105 0-.309.026-.482.2l-3.428 3.426c-.266.266-.266.699.001.966.204.205.573.305.904.033.796-.653 1.958-.601 2.687.129l2.975 2.975c.729.729.784 1.894.127 2.688-3.363 4.068-5.402 8.993-5.896 14.242-.097 1.027-.959 1.813-1.991 1.813h-4.209c-1.03 0-1.892-.782-1.991-1.809-.033-.352-.319-.616-.664-.616-.376 0-.682.306-.682.682v4.849c0 .376.306.682.682.682.345 0 .631-.265.664-.615.1-1.026.961-1.809 1.991-1.809h4.209c1.032 0 1.895.785 1.991 1.813.494 5.25 2.533 10.174 5.896 14.241.657.795.603 1.959-.127 2.688l-2.975 2.975c-.729.729-1.891.784-2.686.13-.271-.224-.66-.21-.906.034-.266.266-.266.698 0 .964l1.599 1.598c.429.324.767.708 1.095 1.082.625.712.889.948 1.218.948.105 0 .308-.026.481-.199.244-.244.259-.634.034-.906-.654-.795-.599-1.957.13-2.686l2.975-2.975c.388-.389.9-.586 1.414-.586z" fill="#3762cc"/></g></g></g><g><g><circle cx="227.962" cy="87.388" fill="#f9a7a7" r="9.015"/></g></g><g><g><circle cx="215.271" cy="200.075" fill="#f9a7a7" r="9.015"/></g></g><g><g><g><path d="m240.309 162.517c0-13.828-11.21-25.038-25.038-25.038s-25.038 11.21-25.038 25.038c0 11.717 8.049 21.551 18.919 24.282l5.153 9.006c.427.747 1.504.747 1.932 0l5.153-9.006c10.87-2.731 18.919-12.565 18.919-24.282z" fill="#f9a7a7"/></g></g><g><g><path d="m215.271 198.366c-1.114 0-2.149-.601-2.702-1.566l-4.739-8.285c-11.582-3.302-19.598-13.87-19.598-25.997 0-14.909 12.13-27.038 27.039-27.038s27.038 12.129 27.038 27.038c0 12.127-8.016 22.695-19.598 25.997l-4.738 8.284c-.553.967-1.588 1.567-2.702 1.567zm0-58.887c-12.704 0-23.039 10.335-23.039 23.038 0 10.58 7.158 19.767 17.407 22.342.527.132.979.474 1.249.946l4.383 7.661 4.382-7.661c.271-.473.722-.814 1.249-.946 10.249-2.575 17.407-11.762 17.407-22.342.001-12.703-10.334-23.038-23.038-23.038z" fill="#3762cc"/></g></g><g><g><g><path d="m233.216 160.113c-.714 0-1.294.546-1.361 1.243h-2.157c-.28-2.97-1.454-5.68-3.253-7.856l1.524-1.524c.573.472 1.358.4 1.841-.084.537-.537.537-1.407 0-1.944l-.878-.878-.878-.878c-.537-.537-1.407-.537-1.943 0-.505.505-.529 1.301-.084 1.841l-1.524 1.524c-2.175-1.799-4.885-2.973-7.856-3.253v-2.157c.696-.067 1.242-.647 1.242-1.361 0-.759-.615-1.374-1.374-1.374h-2.485c-.759 0-1.374.615-1.374 1.374 0 .714.546 1.294 1.243 1.361v2.157c-2.97.28-5.68 1.454-7.856 3.253l-1.524-1.524c.445-.54.421-1.336-.084-1.841-.536-.537-1.407-.537-1.943 0-.109.109-.022.022-1.757 1.757-.537.537-.537 1.407 0 1.944.483.483 1.269.556 1.841.084l1.524 1.524c-1.799 2.176-2.973 4.886-3.253 7.856h-2.157c-.067-.696-.647-1.243-1.361-1.243-.759 0-1.374.615-1.374 1.374v2.485c0 .759.615 1.374 1.374 1.374.714 0 1.294-.546 1.361-1.242h2.157c.28 2.97 1.453 5.68 3.253 7.856l-1.524 1.525c-.54-.445-1.336-.421-1.841.084-.537.537-.537 1.407 0 1.944.039.039.878.879.878.879.491.328.885 1.281 1.85 1.281.352 0 .703-.134.972-.402.505-.505.529-1.301.084-1.841l1.524-1.524c2.175 1.799 4.885 2.973 7.856 3.253v2.157c-.696.067-1.243.647-1.243 1.361 0 .759.615 1.374 1.374 1.374h2.485c.759 0 1.374-.615 1.374-1.374 0-.714-.546-1.294-1.242-1.361v-2.157c2.97-.279 5.68-1.453 7.856-3.253l1.524 1.524c-.445.54-.421 1.336.084 1.841.268.268.62.402.972.402s.703-.134.972-.402l.878-.878.878-.878c.537-.537.537-1.407 0-1.944-.505-.505-1.301-.529-1.841-.084l-1.524-1.524c1.799-2.175 2.973-4.886 3.253-7.856h2.157c.067.696.647 1.242 1.361 1.242.759 0 1.374-.615 1.374-1.374v-2.485c-.001-.763-.617-1.378-1.375-1.378z" fill="#6bdddd"/></g></g><g><g><circle cx="215.271" cy="162.73" fill="#4671c6" r="11.042"/></g></g><g><g><g><circle cx="213.143" cy="160.221" fill="#e0ebfc" r="4.084"/></g></g><g><g><circle cx="219.211" cy="167.051" fill="#e0ebfc" r="2.272"/></g></g></g><g><g><path d="m223.232 160.45c-.483.483-1.266.483-1.749 0l-1.749-1.749c-.483-.483-.483-1.266 0-1.749.483-.483 1.266-.483 1.749 0l1.749 1.749c.483.483.483 1.266 0 1.749z" fill="#a4c9ff"/></g></g><g><g><path d="m212.165 169.196c-.483.483-1.266.483-1.749 0l-1.749-1.749c-.483-.483-.483-1.266 0-1.749.483-.483 1.266-.483 1.749 0l1.749 1.749c.483.483.483 1.266 0 1.749z" fill="#f9a7a7"/></g></g></g></g><g><g><g><path d="m253 52.102c0-13.828-11.21-25.038-25.038-25.038s-25.038 11.21-25.038 25.038c0 11.717 8.049 21.551 18.919 24.282l5.153 9.006c.427.747 1.504.747 1.932 0l5.153-9.006c10.87-2.731 18.919-12.565 18.919-24.282z" fill="#f9a7a7"/></g></g><g><g><path d="m227.962 87.95c-.001 0-.001 0-.002 0-1.113-.001-2.148-.602-2.7-1.568l-4.739-8.282c-11.582-3.303-19.597-13.871-19.597-25.998 0-14.909 12.129-27.038 27.038-27.038s27.038 12.128 27.038 27.038c0 12.127-8.015 22.695-19.597 25.998l-4.739 8.283c-.554.967-1.589 1.567-2.702 1.567zm0-58.887c-12.703 0-23.038 10.335-23.038 23.038 0 10.58 7.158 19.768 17.406 22.343.527.132.979.474 1.249.946l4.383 7.66 4.383-7.66c.271-.473.722-.813 1.249-.946 10.248-2.576 17.406-11.763 17.406-22.342 0-12.704-10.335-23.039-23.038-23.039z" fill="#3762cc"/></g></g><g><g><g><path d="m245.906 49.698c-.714 0-1.294.546-1.361 1.243h-2.157c-.28-2.97-1.454-5.68-3.253-7.856l1.524-1.524c.573.472 1.358.4 1.841-.084.537-.537.537-1.407 0-1.944l-.878-.878-.878-.878c-.537-.537-1.407-.537-1.943 0-.505.505-.529 1.301-.084 1.841l-1.524 1.524c-2.175-1.799-4.885-2.973-7.856-3.253v-2.157c.696-.067 1.242-.647 1.242-1.361 0-.759-.615-1.374-1.374-1.374h-2.485c-.759 0-1.374.615-1.374 1.374 0 .714.546 1.294 1.243 1.361v2.157c-2.97.28-5.68 1.454-7.856 3.253l-1.524-1.524c.445-.54.421-1.336-.084-1.841-.536-.537-1.407-.537-1.943 0-.109.109-.022.022-1.757 1.757-.537.537-.537 1.407 0 1.944.483.483 1.269.556 1.841.084l1.524 1.524c-1.799 2.176-2.973 4.886-3.253 7.856h-2.157c-.067-.696-.647-1.243-1.361-1.243-.759 0-1.374.615-1.374 1.374v2.485c0 .759.615 1.374 1.374 1.374.714 0 1.294-.546 1.361-1.242h2.157c.279 2.97 1.453 5.68 3.253 7.856l-1.524 1.525c-.54-.445-1.336-.421-1.841.084-.537.537-.537 1.407 0 1.944.039.039.878.879.878.879.491.328.885 1.281 1.85 1.281.352 0 .703-.134.972-.402.505-.505.529-1.301.084-1.841l1.524-1.524c2.175 1.799 4.885 2.973 7.856 3.253v2.157c-.696.067-1.243.647-1.243 1.361 0 .759.615 1.374 1.374 1.374h2.485c.759 0 1.374-.615 1.374-1.374 0-.714-.546-1.294-1.242-1.361v-2.157c2.97-.279 5.68-1.453 7.856-3.253l1.524 1.524c-.445.54-.421 1.336.084 1.841.268.268.62.402.972.402s.703-.134.972-.402l.878-.878.878-.878c.537-.537.537-1.407 0-1.944-.505-.505-1.301-.529-1.841-.084l-1.524-1.524c1.799-2.175 2.973-4.886 3.253-7.856h2.157c.067.696.647 1.242 1.361 1.242.759 0 1.374-.615 1.374-1.374v-2.485c0-.763-.616-1.378-1.375-1.378z" fill="#6bdddd"/></g></g><g><g><circle cx="227.962" cy="52.314" fill="#4671c6" r="11.042"/></g></g><g><g><g><circle cx="225.833" cy="49.805" fill="#e0ebfc" r="4.084"/></g></g><g><g><circle cx="231.902" cy="56.635" fill="#e0ebfc" r="2.272"/></g></g></g><g><g><path d="m235.923 50.034c-.483.483-1.266.483-1.749 0l-1.749-1.749c-.483-.483-.483-1.266 0-1.749.483-.483 1.266-.483 1.749 0l1.749 1.749c.483.483.483 1.266 0 1.749z" fill="#a4c9ff"/></g></g><g><g><path d="m224.856 58.78c-.483.483-1.266.483-1.749 0l-1.749-1.749c-.483-.483-.483-1.266 0-1.749.483-.483 1.266-.483 1.749 0l1.749 1.749c.483.483.483 1.266 0 1.749z" fill="#f9a7a7"/></g></g></g></g></g></svg>